<svg id="_x31_" enable-background="new 0 0 24 24" height="512" viewBox="0 0 24 24" width="512" xmlns="http://www.w3.org/2000/svg"><g><path d="m12.25 12h-1.75c-.276 0-.5-.224-.5-.5v-5c0-.276.224-.5.5-.5h1.75c.965 0 1.75.785 1.75 1.75 0 .489-.202.932-.526 1.25.324.318.526.761.526 1.25 0 .965-.785 1.75-1.75 1.75zm-1.25-1h1.25c.414 0 .75-.336.75-.75s-.336-.75-.75-.75h-1.25zm0-2.5h1.25c.414 0 .75-.336.75-.75s-.336-.75-.75-.75h-1.25z"/></g><g><path d="m2.5 12h-2c-.276 0-.5-.224-.5-.5s.224-.5.5-.5h2c.276 0 .5-.224.5-.5v-4c0-.276.224-.5.5-.5s.5.224.5.5v4c0 .827-.673 1.5-1.5 1.5z"/></g><g><path d="m7.5 12h-1c-.827 0-1.5-.673-1.5-1.5v-3c0-.827.673-1.5 1.5-1.5h1c.827 0 1.5.673 1.5 1.5v3c0 .827-.673 1.5-1.5 1.5zm-1-5c-.276 0-.5.224-.5.5v3c0 .276.224.5.5.5h1c.276 0 .5-.224.5-.5v-3c0-.276-.224-.5-.5-.5z"/></g><g><path d="m17.25 12h-1.75c-.276 0-.5-.224-.5-.5s.224-.5.5-.5h1.75c.414 0 .75-.336.75-.75s-.336-.75-.75-.75h-.5c-.965 0-1.75-.785-1.75-1.75s.785-1.75 1.75-1.75h1.75c.276 0 .5.224.5.5s-.224.5-.5.5h-1.75c-.414 0-.75.336-.75.75s.336.75.75.75h.5c.965 0 1.75.785 1.75 1.75s-.785 1.75-1.75 1.75z"/></g><g><path d="m1.998 5.026c-.095 0-.191-.027-.276-.083-.23-.153-.292-.463-.14-.693 1.768-2.662 4.728-4.25 7.918-4.25 3.161 0 6.105 1.565 7.877 4.188.155.229.095.54-.134.694-.228.155-.541.094-.694-.134-1.586-2.347-4.221-3.748-7.049-3.748-2.854 0-5.503 1.421-7.085 3.803-.097.144-.256.223-.417.223z"/></g><g><path d="m9.5 19c-3.603 0-6.853-1.999-8.481-5.216-.125-.246-.026-.547.221-.672.246-.126.547-.026.672.221 1.456 2.878 4.364 4.667 7.588 4.667 3.194 0 6.09-1.765 7.557-4.605.127-.245.428-.341.674-.215.245.127.341.429.215.674-1.64 3.174-4.876 5.146-8.446 5.146z"/></g><g><path d="m23.5 24c-.128 0-.256-.049-.354-.146l-7.386-7.386c-.195-.195-.195-.512 0-.707s.512-.195.707 0l7.386 7.386c.195.195.195.512 0 .707-.097.097-.225.146-.353.146z"/></g></svg>